# xmcd
#
# Track frame offsets:
#	165
#	41865
#	68295
#	82065
#	108637
#	137447
#	163070
#	180782
#	199220
#
# Disc length: 3233 seconds
# Revision: 0
# Processed by: cddbd v1.5.2PL0 Copyright (c) Steve Scherf et al.
# Submitted via: dBpowerAMP V12.0
#
DISCID=730c9f09
DTITLE=Daniel Kane - On the Street Where You Live
DYEAR=1992
DGENRE=Blues
TTITLE0=Cruise Night
TTITLE1=Looking Glass
TTITLE2=Remember When
TTITLE3=The Weave
TTITLE4=Gotta Be Away
TTITLE5=Daddy Slow Down
TTITLE6=Lately
TTITLE7=A Kiss Goodnight
TTITLE8=After Hours
EXTD=
EXTT0=
EXTT1=
EXTT2=
EXTT3=
EXTT4=
EXTT5=
EXTT6=
EXTT7=
EXTT8=
PLAYORDER=
